<svg width="128" height="128" viewBox="0 0 128 128" fill="none" xmlns="http://www.w3.org/2000/svg">
  <style>
    :root {
      --fill: #424242;
    }
    
    .path {
      fill: var(--fill);
    }

    @media (prefers-color-scheme: dark) {
      :root {
        --fill: #FAFAFA
      }
    }
  </style>
  <path class="path" d="M24 43H23V44V84V85H24H40H41V84V76V75H40H33V53H40H41V52V44V43H40H24ZM50.3343 103.686C50.9485 103.322 51.5344 102.877 52 102.357C52.4656 102.877 53.0515 103.322 53.6657 103.686C55.0086 104.48 56.6828 105 58 105H68H69V104V96V95H68H60C58.3523 95 57 93.6477 57 92V85H68H69V84V81C69 78.7923 70.7923 77 73 77V76V75H57V53H95V60.4V61.2176L95.8013 61.3801C98.6146 61.9503 101.196 63.1279 103.396 64.7967L105 66.0138V64V44V43H104H57V36C57 34.3523 58.3523 33 60 33H68H69V32V24V23H68H58C56.6828 23 55.0086 23.5196 53.6657 24.3144C53.0515 24.6779 52.4656 25.1226 52 25.6432C51.5344 25.1226 50.9485 24.6779 50.3343 24.3144C48.9914 23.5196 47.3171 23 46 23H36H35V24V32V33H36H44C45.6477 33 47 34.3523 47 36V92C47 93.6477 45.6477 95 44 95H36H35V96V104V105H36H46C47.3171 105 48.9914 104.48 50.3343 103.686ZM109 89.2C109 87.5134 108.28 85.9744 107.226 84.8622C106.41 84.0011 105.351 83.3519 104.2 83.1067V78C104.2 74.8508 102.625 72.09 100.351 70.1407C98.0801 68.1944 95.0523 67 92 67C88.9477 67 85.9199 68.1944 83.6492 70.1407C81.3751 72.09 79.8 74.8508 79.8 78V83.1062C78.6545 83.3483 77.6023 83.9835 76.7929 84.7929C75.7525 85.8332 75 87.2748 75 88.8V102.8C75 104.487 75.7204 106.026 76.774 107.138C77.8217 108.244 79.2707 109 80.8 109H102.8C104.487 109 106.026 108.28 107.138 107.226C108.244 106.178 109 104.729 109 103.2V89.2ZM97 78V83H87V78C87 75.5305 89.1553 73.8 92 73.8C94.8447 73.8 97 75.5305 97 78Z" />
</svg>
